<svg width="60" height="59" viewBox="0 0 60 59" fill="none" xmlns="http://www.w3.org/2000/svg">
<path d="M47.9149 14.3144C43.4214 12.9793 38.5346 13.1121 34.209 14.5754C32.2342 15.0951 30.3488 15.77 28.5531 16.6C29.9409 8.97383 24.6877 1.66607 17.0616 0.278233C9.43545 -1.10961 2.12769 4.1436 0.73985 11.7697C-0.647991 19.3959 4.60521 26.7036 12.2313 28.0915C13.6098 28.3297 14.8986 28.4128 16.0084 28.1857L17.9786 31.5981L14.1535 30.7043C10.7282 29.7865 7.16069 31.8463 6.08778 35.3611C5.16997 38.7864 6.98503 42.2884 10.4103 43.2062L22.3813 47.4627C23.9452 49.4551 25.885 51.0238 28.0454 52.2583C29.6269 53.2065 31.5187 53.9756 33.2313 54.4345L34.9328 57.3816C35.4701 58.3123 36.4488 58.5745 37.3794 58.0372L58.4745 45.858C59.25 45.4102 59.5778 44.1869 59.13 43.4113L56.8017 39.3785C57.689 34.1094 56.6431 28.7157 54.0461 24.2175L48.852 15.2211C48.6489 14.5111 48.3147 14.2904 47.9149 14.3144ZM5.37261 19.4357C2.41736 14.317 4.27696 7.86625 9.48516 5.06611C14.6038 2.11086 21.0546 3.97046 23.8547 9.17865C25.4667 11.9706 25.6587 15.1688 24.4722 18.1288L19.9946 10.3733C19.1393 9.07477 17.8196 8.15262 16.3063 7.79587C14.7929 7.43911 13.2003 7.67477 11.8551 8.45454C8.97356 9.91138 7.83509 13.6709 9.44705 16.4629L14.1038 24.5286C10.5714 24.4999 7.31878 22.4483 5.37261 19.4357ZM51.0094 25.7639C53.4929 29.7072 54.3357 34.3909 53.4899 39.0155C53.3588 39.5049 53.2277 39.9942 53.4963 40.4595L55.377 43.7168L37.3842 54.105L36.1304 51.9334C35.8617 51.4681 35.2829 51.1819 34.7935 51.0508C33.1705 50.747 31.6129 50.1985 30.0314 49.2503C28.2052 48.2365 26.5101 46.7334 25.1253 45.0512C24.9462 44.741 24.6119 44.5203 24.2777 44.2996L11.7279 39.7569C10.9939 39.5602 10.3255 39.1189 9.87771 38.3433C9.5195 37.7229 9.38195 36.7682 9.57862 36.0342C10.1271 34.4767 11.6782 33.5812 13.3013 33.885L20.3965 35.7861L23.0831 40.4394L25.1347 37.1868L12.239 14.8509C11.7673 13.6756 12.1606 12.2076 13.4911 11.6463C14.5768 11.0194 16.1104 11.1681 16.7372 12.2539L27.0358 30.0916L30.4963 28.921L26.3768 21.7859C26.4424 21.5412 26.5975 21.4517 26.663 21.207C27.7488 20.5801 28.9241 20.1084 30.0995 19.6366L34.6667 27.5472L37.4171 26.5797L32.7603 18.514L34.8903 17.9047C35.7554 17.612 36.7101 17.4745 37.6647 17.3369L42.1424 25.0925L44.8928 24.1249L40.7734 16.9899C42.5276 16.8043 44.3058 17.0186 46.0184 17.4775L51.0094 25.7639Z" fill="white"/>
</svg>
